<?xml version="1.0" standalone="no"?>
<!DOCTYPE svg PUBLIC "-//W3C//DTD SVG 20010904//EN"
 "http://www.w3.org/TR/2001/REC-SVG-20010904/DTD/svg10.dtd">
<svg version="1.0" xmlns="http://www.w3.org/2000/svg"
 width="254.000000pt" height="254.000000pt" viewBox="0 0 254.000000 254.000000"
 preserveAspectRatio="xMidYMid meet">
<metadata>
Created by potrace 1.14, written by Peter Selinger 2001-2017
</metadata>
<g transform="translate(0.000000,254.000000) scale(0.100000,-0.100000)"
fill="#000000" stroke="none">
<path d="M307 2384 c-139 -33 -263 -161 -297 -306 -6 -27 -9 -328 -7 -808 l2
-765 23 -58 c61 -150 209 -256 367 -261 103 -3 162 17 345 119 41 23 104 58
140 77 36 19 94 51 130 70 96 53 377 206 440 241 83 46 127 70 215 117 263
142 301 167 351 234 125 169 103 415 -51 551 -45 41 -368 222 -408 229 -39 7
-85 -27 -93 -69 -7 -41 12 -76 56 -100 14 -8 88 -49 165 -91 77 -42 152 -88
168 -102 58 -55 86 -155 63 -232 -25 -82 -65 -121 -196 -192 -36 -19 -141 -77
-235 -128 -93 -51 -204 -110 -245 -133 -41 -22 -79 -43 -85 -47 -5 -4 -39 -23
-75 -42 -36 -19 -184 -99 -330 -179 -259 -141 -266 -144 -330 -146 -108 -2
-192 53 -229 153 -16 46 -18 99 -16 779 1 806 0 787 65 853 51 53 103 76 173
75 59 -1 111 -22 262 -107 199 -111 362 -197 383 -201 48 -8 103 43 96 90 -7
47 -35 67 -302 213 -342 186 -395 203 -545 166z"/>
<path d="M2025 2341 c-33 -10 -101 -39 -150 -65 -123 -67 -192 -104 -245 -134
-25 -13 -74 -40 -110 -60 -36 -19 -78 -42 -95 -52 -16 -10 -59 -33 -95 -52
-36 -20 -191 -104 -345 -188 -154 -84 -298 -163 -320 -174 -57 -30 -157 -133
-183 -189 -84 -181 -30 -398 128 -511 28 -20 52 -36 54 -36 2 0 68 -36 147
-79 150 -82 155 -84 202 -82 58 2 84 99 39 143 -9 9 -89 55 -177 103 -88 48
-172 98 -188 113 -69 65 -91 187 -49 269 35 69 59 88 182 155 36 20 241 131
455 248 215 117 413 225 440 240 28 15 115 63 195 106 145 79 145 79 220 79
64 0 81 -4 115 -27 57 -37 83 -68 104 -124 17 -46 18 -99 16 -779 -1 -812 1
-787 -69 -856 -62 -63 -137 -86 -218 -67 -23 5 -143 64 -267 132 -350 191
-325 180 -366 166 -54 -18 -75 -75 -46 -128 14 -26 560 -319 626 -337 71 -18
185 -14 245 10 129 52 220 155 256 290 18 67 20 1490 2 1579 -16 80 -73 171
-143 228 -102 83 -237 112 -360 79z"/>
</g>
</svg>
